<svg xmlns="http://www.w3.org/2000/svg" xmlns:xlink="http://www.w3.org/1999/xlink" width="270" height="56" viewBox="0 0 270 56">
  <defs>
    <linearGradient id="linear-gradient" x1="0.5" x2="0.5" y2="1" gradientUnits="objectBoundingBox">
      <stop offset="0" stop-color="#50b83c"/>
      <stop offset="1" stop-color="#01a38a"/>
    </linearGradient>
    <filter id="Path_45783" x="14.741" y="9.018" width="29.321" height="42.484" filterUnits="userSpaceOnUse">
      <feOffset dy="1" input="SourceAlpha"/>
      <feGaussianBlur stdDeviation="0.5" result="blur"/>
      <feFlood flood-opacity="0.161"/>
      <feComposite operator="in" in2="blur"/>
      <feComposite in="SourceGraphic"/>
    </filter>
    <clipPath id="clip-logo">
      <rect width="270" height="56"/>
    </clipPath>
  </defs>
  <g id="logo" clip-path="url(#clip-logo)">
    <g id="Group_52122" data-name="Group 52122" transform="translate(-318 -12.008)">
      <path id="Path_45797" data-name="Path 45797" d="M12.828-5.023H4.786L2.979,0H.369L7.7-19.2H9.914L17.257,0h-2.6ZM5.55-7.093h6.526l-3.27-8.978ZM23.111-19.2,29.386-3.533,35.662-19.2h3.283V0H36.413V-7.475l.237-8.068L30.349,0H28.411L22.122-15.5l.25,8.029V0H19.841V-19.2ZM46.129,0H43.6V-19.2h2.531ZM56.413-8.556a11.9,11.9,0,0,1-4.74-2.3,4.4,4.4,0,0,1-1.483-3.368A4.643,4.643,0,0,1,52-17.976a7.2,7.2,0,0,1,4.713-1.483,7.864,7.864,0,0,1,3.527.765,5.8,5.8,0,0,1,2.4,2.109,5.394,5.394,0,0,1,.85,2.94H60.948A3.51,3.51,0,0,0,59.84-16.39a4.5,4.5,0,0,0-3.125-1,4.61,4.61,0,0,0-2.92.826,2.754,2.754,0,0,0-1.048,2.291,2.477,2.477,0,0,0,1,1.988A9.763,9.763,0,0,0,57.131-10.8a15.721,15.721,0,0,1,3.744,1.484,5.682,5.682,0,0,1,2,1.892,4.829,4.829,0,0,1,.653,2.544A4.485,4.485,0,0,1,61.712-1.14a7.757,7.757,0,0,1-4.865,1.4,9.023,9.023,0,0,1-3.691-.758,6.212,6.212,0,0,1-2.643-2.076,5.067,5.067,0,0,1-.929-2.993h2.544a3.306,3.306,0,0,0,1.285,2.749,5.412,5.412,0,0,0,3.434,1.009,4.975,4.975,0,0,0,3.072-.817,2.655,2.655,0,0,0,1.068-2.228A2.606,2.606,0,0,0,60-7.033,11.4,11.4,0,0,0,56.413-8.556Zm29.782-8.569h-6.17V0H77.506V-17.125H71.35V-19.2H86.194ZM91.31,0H88.871V-14.265H91.31ZM88.673-18.048a1.456,1.456,0,0,1,.363-1,1.361,1.361,0,0,1,1.074-.409,1.382,1.382,0,0,1,1.081.409,1.441,1.441,0,0,1,.369,1,1.393,1.393,0,0,1-.369.989,1.407,1.407,0,0,1-1.081.4,1.386,1.386,0,0,1-1.074-.4A1.408,1.408,0,0,1,88.673-18.048ZM101.131.264a6.233,6.233,0,0,1-4.72-1.905,7.071,7.071,0,0,1-1.819-5.1v-.448a8.56,8.56,0,0,1,.811-3.79,6.325,6.325,0,0,1,2.268-2.61,5.7,5.7,0,0,1,3.157-.943,5.342,5.342,0,0,1,4.324,1.833,7.934,7.934,0,0,1,1.542,5.247v1.015H97.031a5.071,5.071,0,0,0,1.233,3.408,3.875,3.875,0,0,0,3,1.3,4.248,4.248,0,0,0,2.188-.527,5.5,5.5,0,0,0,1.569-1.4l1.49,1.16A5.99,5.99,0,0,1,101.131.264Zm-.3-12.788A3.253,3.253,0,0,0,98.35-11.45,5.222,5.222,0,0,0,97.11-8.437h7.146v-.185a4.645,4.645,0,0,0-1-2.881A3.063,3.063,0,0,0,100.828-12.524Zm4.8-3.8-2.6.007L100.789-18.4l-2.241,2.083-2.584-.007,3.823-3.448h2Zm-8.7-2.333-1.846.007-2.637-3.4h2.624Zm14.9,4.4.079,1.793a5.2,5.2,0,0,1,4.271-2.057q4.522,0,4.562,5.1V0H118.3V-9.439a3.284,3.284,0,0,0-.705-2.281,2.827,2.827,0,0,0-2.156-.738,3.52,3.52,0,0,0-2.083.633,4.3,4.3,0,0,0-1.4,1.661V0h-2.439V-14.265ZM133.748,0h-2.439V-20.25h2.439Zm19.129-15.4a4.644,4.644,0,0,1-.969,3.342,4.375,4.375,0,0,1-3.078,1.022V0h-2.32l-.053-1.411A5.181,5.181,0,0,1,142.277.264,4.434,4.434,0,0,1,138.8-1.061,5.735,5.735,0,0,1,137.6-4.983v-9.281h2.439v9.215q0,3.243,2.637,3.243,2.795,0,3.718-2.083V-14.265h2.439v1.727a3.256,3.256,0,0,0,1.345-.257,1.323,1.323,0,0,0,.639-.705A6.045,6.045,0,0,0,151-15.4Zm.831,8.134a8.5,8.5,0,0,1,.811-3.764,6.083,6.083,0,0,1,2.294-2.584,6.277,6.277,0,0,1,3.368-.916,6.084,6.084,0,0,1,4.522,1.819,1.74,1.74,0,0,0,1.358-.765,4.656,4.656,0,0,0,.422-2.347h1.978q0,3.836-2.729,4.509a8.52,8.52,0,0,1,.962,4.047v.29a8.452,8.452,0,0,1-.817,3.757,6.045,6.045,0,0,1-2.294,2.577,6.338,6.338,0,0,1-3.375.9,5.982,5.982,0,0,1-4.713-2.024,7.762,7.762,0,0,1-1.786-5.333Zm2.439.29a6.1,6.1,0,0,0,1.1,3.81,3.536,3.536,0,0,0,2.96,1.437,3.5,3.5,0,0,0,2.933-1.444,6.248,6.248,0,0,0,1.1-3.883v-.211a6.074,6.074,0,0,0-1.114-3.823,3.546,3.546,0,0,0-2.947-1.437,3.515,3.515,0,0,0-2.927,1.437A6.624,6.624,0,0,0,156.146-6.974Zm15.939-7.291.079,1.793a5.2,5.2,0,0,1,4.271-2.057q4.522,0,4.562,5.1V0h-2.439V-9.439a3.284,3.284,0,0,0-.705-2.281,2.827,2.827,0,0,0-2.156-.738,3.52,3.52,0,0,0-2.083.633,4.3,4.3,0,0,0-1.4,1.661V0h-2.439V-14.265ZM184.1-7.251a8.384,8.384,0,0,1,1.542-5.306,4.933,4.933,0,0,1,4.087-1.971,4.907,4.907,0,0,1,4.074,1.846l.119-1.582h2.228V-.343A5.8,5.8,0,0,1,194.5,4.021a6.057,6.057,0,0,1-4.41,1.6,7.337,7.337,0,0,1-3.019-.659,5.2,5.2,0,0,1-2.254-1.806l1.266-1.463a4.769,4.769,0,0,0,3.836,1.938,3.737,3.737,0,0,0,2.775-1,3.83,3.83,0,0,0,1-2.821V-1.424A5.013,5.013,0,0,1,189.7.264a4.873,4.873,0,0,1-4.054-2.017A8.815,8.815,0,0,1,184.1-7.251Zm2.452.277a6.4,6.4,0,0,0,.989,3.79,3.213,3.213,0,0,0,2.769,1.378,3.573,3.573,0,0,0,3.388-2.1v-6.513a3.614,3.614,0,0,0-3.362-2.043,3.242,3.242,0,0,0-2.782,1.384A6.966,6.966,0,0,0,186.548-6.974Z" transform="translate(390 49)" fill="#212121"/>
      <g id="Group_52036" data-name="Group 52036" transform="translate(318 12.018)">
        <g id="Group_52034" data-name="Group 52034" transform="translate(0 -0.011)">
          <path id="Path_45782" data-name="Path 45782" d="M1216.6,2415.505c0-.672,0-1.337,0-2.006,0-.56-.01-1.126-.025-1.69a24.625,24.625,0,0,0-.323-3.677,12.41,12.41,0,0,0-1.153-3.5,11.76,11.76,0,0,0-5.142-5.142,12.4,12.4,0,0,0-3.495-1.152,24.707,24.707,0,0,0-3.679-.323c-.564-.014-1.126-.022-1.691-.025-.668,0-1.337,0-2.005,0H1178.12c-.669,0-1.338,0-2.006,0-.565,0-1.127.011-1.69.025a24.707,24.707,0,0,0-3.679.323,12.406,12.406,0,0,0-3.5,1.152,11.759,11.759,0,0,0-5.142,5.142,12.377,12.377,0,0,0-1.152,3.5,24.546,24.546,0,0,0-.323,3.677q-.023.845-.025,1.691c0,.669,0,1.336,0,2.006v20.963c0,.669,0,1.337,0,2.006q0,.844.025,1.689a24.546,24.546,0,0,0,.324,3.678,12.379,12.379,0,0,0,1.152,3.5,11.775,11.775,0,0,0,5.142,5.141,12.412,12.412,0,0,0,3.5,1.151,24.544,24.544,0,0,0,3.679.323c.56.016,1.127.022,1.69.025.669,0,1.338,0,2.006,0h20.965c.672,0,1.338,0,2.006,0,.563,0,1.126-.01,1.69-.025a24.447,24.447,0,0,0,3.679-.323,12.4,12.4,0,0,0,3.495-1.152,11.778,11.778,0,0,0,5.142-5.141,12.419,12.419,0,0,0,1.152-3.5,24.645,24.645,0,0,0,.323-3.678c.015-.56.021-1.126.025-1.689q0-1,0-2.006Z" transform="translate(-1160.602 -2397.986)" fill="url(#linear-gradient)"/>
        </g>
        <g id="Group_52035" data-name="Group 52035" transform="translate(16.241 9.509)">
          <g transform="matrix(1, 0, 0, 1, -16.24, -9.52)" filter="url(#Path_45783)">
            <path id="Path_45783-2" data-name="Path 45783" d="M1358.16,2430a13.186,13.186,0,0,0-13.123,12.429c-.014.244-.037.484-.037.731v26.321h2.714a6.059,6.059,0,0,0,6.06-6.061v-7.864h0v-12.4a4.384,4.384,0,1,1,2.426,3.925v9.084a12.908,12.908,0,0,0,1.663.147c.1,0,.2,0,.3,0s.227,0,.339-.005.224-.007.336-.013.224-.012.336-.022a13.16,13.16,0,0,0,12.11-12.11c.009-.112.016-.224.022-.336s.01-.224.012-.336.005-.224.005-.339a13.16,13.16,0,0,0-13.16-13.16Z" transform="translate(-1328.76 -2420.48)" fill="#fff"/>
          </g>
          <path id="Path_45784" data-name="Path 45784" d="M1371.353,2453.5a4.388,4.388,0,0,1-6.348,3.924v9.085a12.865,12.865,0,0,0,1.663.147c.1,0,.2,0,.3,0s.224,0,.339-.005.224-.007.336-.013.224-.012.336-.022a13.16,13.16,0,0,0,12.11-12.11q.013-.168.022-.336c.006-.112.01-.224.012-.336s0-.224,0-.336Z" transform="translate(-1353.802 -2440.337)" fill="#fff"/>
        </g>
      </g>
    </g>
  </g>
</svg>
