<svg xmlns="http://www.w3.org/2000/svg" xmlns:xlink="http://www.w3.org/1999/xlink" width="60" height="60" viewBox="0 0 60 60">
  <defs>
    <clipPath id="clip-ic-question">
      <rect width="60" height="60"/>
    </clipPath>
  </defs>
  <g id="ic-question" clip-path="url(#clip-ic-question)">
    <g id="Group_51855" data-name="Group 51855" transform="translate(-170 -1245)">
      <circle id="Ellipse_3112" data-name="Ellipse 3112" cx="30" cy="30" r="30" transform="translate(170 1245)" fill="#30a557"/>
      <g id="Ellipse_3124" data-name="Ellipse 3124" transform="translate(174 1249)" fill="none" stroke="#fff" stroke-width="1" opacity="0.2">
        <circle cx="26" cy="26" r="26" stroke="none"/>
        <circle cx="26" cy="26" r="25.5" fill="none"/>
      </g>
      <path id="Polygon_3" data-name="Polygon 3" d="M13.791,2.7a2,2,0,0,1,3.388,0L29.046,21.606a2,2,0,0,1-1.694,3.063H3.617a2,2,0,0,1-1.694-3.063Z" transform="translate(215.834 1259.516) rotate(90)" fill="none"/>
      <path id="Path_45111" data-name="Path 45111" d="M6.272-8.928a5.163,5.163,0,0,1,.656-2.656,11.332,11.332,0,0,1,2.288-2.56,8.807,8.807,0,0,0,1.392-1.5,2.569,2.569,0,0,0,.432-1.472A2.212,2.212,0,0,0,10.3-18.8a2.743,2.743,0,0,0-1.952-.688,2.972,2.972,0,0,0-2.1.752,4.209,4.209,0,0,0-1.168,1.872L1.408-18.4a7.253,7.253,0,0,1,2.384-3.536,6.714,6.714,0,0,1,4.464-1.488,7.776,7.776,0,0,1,3.584.8,6.109,6.109,0,0,1,2.448,2.192,5.661,5.661,0,0,1,.88,3.088,5.475,5.475,0,0,1-.7,2.848,12.128,12.128,0,0,1-2.08,2.5A7.706,7.706,0,0,0,10.9-10.24a3.856,3.856,0,0,0-.4,1.856v.512H6.272ZM8.352.192A2.682,2.682,0,0,1,6.384-.624a2.682,2.682,0,0,1-.816-1.968,2.63,2.63,0,0,1,.816-1.952,2.709,2.709,0,0,1,1.968-.8,2.656,2.656,0,0,1,1.952.8,2.656,2.656,0,0,1,.8,1.952,2.709,2.709,0,0,1-.8,1.968A2.63,2.63,0,0,1,8.352.192Z" transform="translate(191.712 1286.616)" fill="#fff"/>
    </g>
  </g>
</svg>
