<svg xmlns="http://www.w3.org/2000/svg" xmlns:xlink="http://www.w3.org/1999/xlink" width="64" height="64" viewBox="0 0 64 64">
  <defs>
    <clipPath id="clip-major-1">
      <rect width="64" height="64"/>
    </clipPath>
  </defs>
  <g id="major-1" clip-path="url(#clip-major-1)">
    <g id="hr">
      <path id="Path_45581" data-name="Path 45581" d="M143.563,127.5a16.054,16.054,0,0,0-12.974,25.52,9.359,9.359,0,0,1,5.474-1.77h15a9.359,9.359,0,0,1,5.475,1.77,16.054,16.054,0,0,0-12.974-25.52Zm0,20a8.125,8.125,0,1,1,8.125-8.125A8.134,8.134,0,0,1,143.563,147.5Z" transform="translate(-111.563 -111.563)" fill="#5bb476"/>
      <path id="Path_45582" data-name="Path 45582" d="M225.375,187.5a4.375,4.375,0,1,0,4.375,4.375A4.38,4.38,0,0,0,225.375,187.5Z" transform="translate(-193.375 -164.063)" fill="#5bb476"/>
      <path id="Path_45583" data-name="Path 45583" d="M175.769,347.5a5.612,5.612,0,0,0-2.89.8,16.028,16.028,0,0,0,20.78,0,5.614,5.614,0,0,0-2.89-.8Z" transform="translate(-151.269 -304.062)" fill="#fca800"/>
      <path id="Path_45584" data-name="Path 45584" d="M64,38.537V25.463l-5.789-1.158a27.137,27.137,0,0,0-2.236-5.4l3.275-4.912L50.005,4.75,45.093,8.025a27.13,27.13,0,0,0-5.4-2.236L38.537,0H25.463L24.305,5.789a27.13,27.13,0,0,0-5.4,2.236L13.995,4.75,4.75,13.995l3.275,4.912a27.13,27.13,0,0,0-2.236,5.4L0,25.463V38.537l5.789,1.158a27.123,27.123,0,0,0,2.236,5.4L4.75,50.005l9.245,9.245,4.912-3.275a27.126,27.126,0,0,0,5.4,2.236L25.463,64H38.537l1.158-5.789a27.137,27.137,0,0,0,5.4-2.236l4.912,3.275,9.245-9.245-3.275-4.912a27.126,27.126,0,0,0,2.236-5.4ZM32,51.813A19.813,19.813,0,1,1,51.813,32,19.835,19.835,0,0,1,32,51.813Z" fill="#b9e6c8"/>
    </g>
  </g>
</svg>
