<svg xmlns="http://www.w3.org/2000/svg" width="23.309" height="23.31" viewBox="0 0 23.309 23.31">
  <g id="spaceship" transform="translate(-1 -1.257)">
    <g id="Group_52656" data-name="Group 52656" transform="translate(1 1.257)">
      <path id="Path_77008" data-name="Path 77008" d="M13.585,6.693a8.615,8.615,0,0,0-9.414,4.044.51.51,0,0,0,.078.619l2.485,2.485A25.236,25.236,0,0,1,13.585,6.693Z" transform="translate(-2.521 -3.811)" fill="#32b247"/>
      <path id="Path_77009" data-name="Path 77009" d="M27.03,32.064l2.5,2.5a.509.509,0,0,0,.619.078,8.618,8.618,0,0,0,4.031-9.475A25.619,25.619,0,0,1,27.03,32.064Z" transform="translate(-13.766 -12.983)" fill="#32b247"/>
      <path id="Path_77010" data-name="Path 77010" d="M4.057,35A3.061,3.061,0,0,0,1,38.057v2.548a.509.509,0,0,0,.51.51H4.057a3.057,3.057,0,1,0,0-6.115Z" transform="translate(-1 -17.805)" fill="#32b247"/>
      <path id="Path_77011" data-name="Path 77011" d="M19.073,5.17a23.7,23.7,0,0,0-11.064,11.3.51.51,0,0,0,.113.55l5.765,5.765a.511.511,0,0,0,.553.112A23.945,23.945,0,0,0,25.711,11.807Zm-1.4,10.105a2.038,2.038,0,1,1,2.038-2.038A2.038,2.038,0,0,1,17.668,15.275Z" transform="translate(-4.419 -3.176)" fill="#32b247"/>
      <path id="Path_77012" data-name="Path 77012" d="M37.8,8.887A21.915,21.915,0,0,0,39.377,1.8a.508.508,0,0,0-.147-.388.515.515,0,0,0-.388-.149,21.814,21.814,0,0,0-7.116,1.555Z" transform="translate(-16.069 -1.257)" fill="#32b247"/>
    </g>
  </g>
</svg>
