<svg xmlns="http://www.w3.org/2000/svg" xmlns:xlink="http://www.w3.org/1999/xlink" width="80" height="80" viewBox="0 0 80 80">
  <defs>
    <clipPath id="clip-tutorial-4">
      <rect width="80" height="80"/>
    </clipPath>
  </defs>
  <g id="tutorial-4" clip-path="url(#clip-tutorial-4)">
    <g id="Group_52043" data-name="Group 52043" transform="translate(-458 -1466)">
      <g id="Ellipse_3120" data-name="Ellipse 3120" transform="translate(458 1466)" fill="none" stroke="#e7ece7" stroke-width="1">
        <circle cx="40" cy="40" r="40" stroke="none"/>
        <circle cx="40" cy="40" r="39.5" fill="none"/>
      </g>
      <g id="money" transform="translate(478 1486)">
        <g id="Group_52053" data-name="Group 52053" transform="translate(0 23.594)">
          <g id="Group_52052" data-name="Group 52052">
            <path id="Path_45785" data-name="Path 45785" d="M3.594,302H1.172A1.171,1.171,0,0,0,0,303.172v14.063a1.171,1.171,0,0,0,1.172,1.172H3.594a3.52,3.52,0,0,0,3.516-3.516v-9.375A3.52,3.52,0,0,0,3.594,302Z" transform="translate(0 -302)" fill="#5bb476"/>
          </g>
        </g>
        <g id="Group_52055" data-name="Group 52055" transform="translate(14.219)">
          <g id="Group_52054" data-name="Group 52054">
            <path id="Path_45786" data-name="Path 45786" d="M194.891,0a12.871,12.871,0,0,0-9.961,21.047,10.459,10.459,0,0,1,4.031,2.2.922.922,0,0,0,.586.188h4.172a4.571,4.571,0,0,1,3.867,2.062,12.893,12.893,0,0,0-2.7-25.5Zm1.2,18.539h-.023v1.383a1.172,1.172,0,0,1-2.344,0V18.539a4.649,4.649,0,0,1-2.133-1.523,1.164,1.164,0,1,1,1.781-1.5c.633.75,1.336,1.031,1.922.82a1.172,1.172,0,0,0-.4-2.273,3.511,3.511,0,0,1-1.359-6.75c.047-.023.117-.023.188-.047V5.859a1.172,1.172,0,0,1,2.344,0V7.266A4.609,4.609,0,0,1,197.8,8.3a1.177,1.177,0,0,1-1.641,1.688,1.585,1.585,0,0,0-1.711-.516,1.168,1.168,0,0,0,.445,2.25,3.515,3.515,0,0,1,1.2,6.82Z" transform="translate(-182)" fill="#fca800"/>
          </g>
        </g>
        <g id="Group_52057" data-name="Group 52057" transform="translate(9.453 23.144)">
          <g id="Group_52056" data-name="Group 52056">
            <path id="Path_45787" data-name="Path 45787" d="M151.2,298.969a2.147,2.147,0,0,0-.539-.586,2.322,2.322,0,0,0-3.164.234l-5.32,6.141-.164.187a3.458,3.458,0,0,1-2.578,1.125h-9.172a1.172,1.172,0,0,1,0-2.344h7.227a2.351,2.351,0,0,0,2.344-2.344v-.023a2.346,2.346,0,0,0-2.344-2.32h-4.32a3.226,3.226,0,0,1-2.062-.773,8.214,8.214,0,0,0-10.1-.539v14.414a27.053,27.053,0,0,0,7.125.961h10.531a8.214,8.214,0,0,0,6.563-3.281l5.625-7.5A3.1,3.1,0,0,0,151.2,298.969Z" transform="translate(-121 -296.246)" fill="#b9e6c8"/>
          </g>
        </g>
      </g>
    </g>
  </g>
</svg>
