<svg xmlns="http://www.w3.org/2000/svg" xmlns:xlink="http://www.w3.org/1999/xlink" width="80" height="80" viewBox="0 0 80 80">
  <defs>
    <clipPath id="clip-tutorial-5">
      <rect width="80" height="80"/>
    </clipPath>
  </defs>
  <g id="tutorial-5" clip-path="url(#clip-tutorial-5)">
    <g id="Group_52106" data-name="Group 52106" transform="translate(-928 -873)">
      <g id="Ellipse_3117" data-name="Ellipse 3117" transform="translate(928 873)" fill="none" stroke="#e7ece7" stroke-width="1">
        <circle cx="40" cy="40" r="40" stroke="none"/>
        <circle cx="40" cy="40" r="39.5" fill="none"/>
      </g>
      <g id="Group_52107" data-name="Group 52107" transform="translate(936 885)">
        <g id="Group_51736" data-name="Group 51736">
          <path id="Path_44914" data-name="Path 44914" d="M45.489,17.438,35.427,25.46l-9.8-5.413-11.8,8.061" fill="none" stroke="#fca800" stroke-linecap="round" stroke-linejoin="round" stroke-width="2"/>
          <path id="Path_44915" data-name="Path 44915" d="M49.354,14.016l-7.1.651a.236.236,0,0,0-.161.385l5.073,6.188a.237.237,0,0,0,.41-.082l2.031-6.84A.235.235,0,0,0,49.354,14.016Z" fill="#fca800"/>
        </g>
        <rect id="Rectangle_21870" data-name="Rectangle 21870" width="4" height="10" rx="1.983" transform="translate(13.848 35)" fill="#b9e6c8"/>
        <rect id="Rectangle_21871" data-name="Rectangle 21871" width="4" height="11" rx="2" transform="translate(33.848 34)" fill="#b9e6c8"/>
        <rect id="Rectangle_21872" data-name="Rectangle 21872" width="4" height="14" rx="1.96" transform="translate(23.848 31)" fill="#5bb476"/>
        <rect id="Rectangle_21873" data-name="Rectangle 21873" width="4" height="19" rx="2" transform="translate(43.848 26)" fill="#5bb476"/>
        <rect id="Rectangle_21874" data-name="Rectangle 21874" width="40" height="40" transform="translate(12 8)" fill="none"/>
      </g>
    </g>
  </g>
</svg>
