<svg xmlns="http://www.w3.org/2000/svg" xmlns:xlink="http://www.w3.org/1999/xlink" width="80" height="80" viewBox="0 0 80 80">
  <defs>
    <clipPath id="clip-tutorial-1">
      <rect width="80" height="80"/>
    </clipPath>
  </defs>
  <g id="tutorial-1" clip-path="url(#clip-tutorial-1)">
    <g id="Group_51942" data-name="Group 51942" transform="translate(-928 -873)">
      <g id="Ellipse_3117" data-name="Ellipse 3117" transform="translate(928 873)" fill="none" stroke="#e7ece7" stroke-width="1">
        <circle cx="40" cy="40" r="40" stroke="none"/>
        <circle cx="40" cy="40" r="39.5" fill="none"/>
      </g>
      <g id="Group_52045" data-name="Group 52045" transform="translate(948 893)">
        <g id="Group_51730" data-name="Group 51730" transform="translate(3.75 2.501)">
          <path id="Path_44909" data-name="Path 44909" d="M12,21.889c.05-2.205,1.157-7.925,8.748-7.889v8.75h-7.9A.842.842,0,0,1,12,21.889Z" transform="translate(-12.002 -13.991)" fill="#5bb476"/>
          <path id="Path_45273" data-name="Path 45273" d="M3.436,0H22.351a6.206,6.206,0,0,1,6.206,6.206V31.556a3.436,3.436,0,0,1-3.436,3.436H3.436A3.436,3.436,0,0,1,0,31.556V3.436A3.436,3.436,0,0,1,3.436,0Z" transform="translate(4.374 0.009)" fill="#b9e6c8"/>
          <circle id="Ellipse_3089" data-name="Ellipse 3089" cx="1.641" cy="1.641" r="1.641" transform="translate(8.178 6.146)" fill="#5bb476"/>
          <rect id="Rectangle_21860" data-name="Rectangle 21860" width="16.406" height="3.281" rx="1.5" transform="translate(12.15 6.146)" fill="#5bb476"/>
          <circle id="Ellipse_3090" data-name="Ellipse 3090" cx="1.641" cy="1.641" r="1.641" transform="translate(8.178 12.283)" fill="#fff"/>
          <rect id="Rectangle_21861" data-name="Rectangle 21861" width="16.406" height="3.281" rx="1.5" transform="translate(12.15 12.283)" fill="#fff"/>
          <circle id="Ellipse_3091" data-name="Ellipse 3091" cx="1.641" cy="1.641" r="1.641" transform="translate(8.178 18.421)" fill="#fff"/>
          <rect id="Rectangle_21862" data-name="Rectangle 21862" width="16.406" height="3.281" rx="1.5" transform="translate(12.15 18.421)" fill="#fff"/>
          <circle id="Ellipse_3092" data-name="Ellipse 3092" cx="1.641" cy="1.641" r="1.641" transform="translate(8.178 25.581)" fill="#fff"/>
          <rect id="Rectangle_21863" data-name="Rectangle 21863" width="16.406" height="3.281" rx="1.5" transform="translate(12.15 25.581)" fill="#fff"/>
          <path id="Path_44910" data-name="Path 44910" d="M14.232,16.094s1.981,1.508,1.934,5.5c-.079,6.622,1.094-2.128,1.094-2.128L19.447,14A6.872,6.872,0,0,0,14.232,16.094Z" transform="translate(-11.793 -13.992)" fill="#b9e6c8"/>
          <path id="Rectangle_21864" data-name="Rectangle 21864" d="M.961,0H19.94A.961.961,0,0,1,20.9.961v1.2a0,0,0,0,1,0,0H0a0,0,0,0,1,0,0V.961A.961.961,0,0,1,.961,0Z" transform="translate(7.656 32.836)" fill="#fca800"/>
        </g>
        <rect id="Rectangle_21865" data-name="Rectangle 21865" width="40" height="40" fill="none"/>
      </g>
    </g>
  </g>
</svg>
