<svg xmlns="http://www.w3.org/2000/svg" width="28.03" height="25.063" viewBox="0 0 28.03 25.063">
  <path id="Path_77007" data-name="Path 77007" d="M267.79,94.9H250.464c-.791,0-1.055-.205-1.231-1q-.44-1.891-.968-3.782c-.176-.675-.7-.821-1.465-.821h-4.661a.97.97,0,0,0-.938.967v.03a.97.97,0,0,0,.938.967h3.43a1.012,1.012,0,0,1,1,.733c1.378,5.511,2.521,10.348,3.987,15.859a1.337,1.337,0,0,1-.381,1.642,2.827,2.827,0,0,0,1.231,4.778,2.912,2.912,0,0,0,3.2-1.319c.322-.587.586-.821,1.173-.821h4.72a1.173,1.173,0,0,1,1.231.791,2.933,2.933,0,0,0,3.225,1.349,2.8,2.8,0,0,0,1.993-1.994,2.845,2.845,0,0,0-2.726-3.606,2.9,2.9,0,0,0-2.346,1.231c-.527.762-.82.967-1.348.967H255.8c-.616,0-.85-.205-1.29-.909a3.065,3.065,0,0,0-1.583-1.173c-.645-.205-.909-.352-1.085-.938-.088-.322-.146-.616-.234-.879-.029-.176-.117-.85.645-.85h12.43c1.085,0,1.935-.176,2.14-.821L269.2,95.9c.205-.85-.557-1-1.407-1m-3.577,15.361a1.233,1.233,0,0,1,1.261,1.261,1.251,1.251,0,0,1-1.261,1.261,1.29,1.29,0,0,1-1.261-1.261,1.27,1.27,0,0,1,1.261-1.261m-12.078,0a1.27,1.27,0,0,1,1.261,1.261,1.29,1.29,0,0,1-1.261,1.261,1.27,1.27,0,0,1-1.261-1.261,1.251,1.251,0,0,1,1.261-1.261" transform="translate(-241.201 -89.305)" fill="#32b247" fill-rule="evenodd"/>
</svg>
