<svg xmlns="http://www.w3.org/2000/svg" xmlns:xlink="http://www.w3.org/1999/xlink" width="60" height="60" viewBox="0 0 60 60">
  <defs>
    <clipPath id="clip-ic-add">
      <rect width="60" height="60"/>
    </clipPath>
  </defs>
  <g id="ic-add" clip-path="url(#clip-ic-add)">
    <g id="Group_51855" data-name="Group 51855" transform="translate(-170 -1245)">
      <circle id="Ellipse_3112" data-name="Ellipse 3112" cx="30" cy="30" r="30" transform="translate(170 1245)" fill="rgb(0,168,243)"/>
      <g id="Ellipse_3124" data-name="Ellipse 3124" transform="translate(174 1249)" fill="none" stroke="#fff" stroke-width="1" opacity="0.2">
        <circle cx="26" cy="26" r="26" stroke="none"/>
        <circle cx="26" cy="26" r="25.5" fill="none"/>
      </g>
      <path id="Polygon_3" data-name="Polygon 3" d="M13.791,2.7a2,2,0,0,1,3.388,0L29.046,21.606a2,2,0,0,1-1.694,3.063H3.617a2,2,0,0,1-1.694-3.063Z" transform="translate(215.834 1259.516) rotate(90)" fill="none"/>
      <rect id="Rectangle_22015" data-name="Rectangle 22015" width="3" height="21" rx="1.5" transform="translate(211 1274) rotate(90)" fill="#fff"/>
      <rect id="Rectangle_22016" data-name="Rectangle 22016" width="3" height="20" rx="1.5" transform="translate(202 1285) rotate(180)" fill="#fff"/>
    </g>
  </g>
</svg>
