<svg xmlns="http://www.w3.org/2000/svg" width="24" height="24" viewBox="0 0 24 24">
  <g id="Group_45522" data-name="Group 45522" transform="translate(2522 -789)">
    <rect id="Rectangle_18514" data-name="Rectangle 18514" width="24" height="24" transform="translate(-2522 789)" fill="#fff" opacity="0"/>
    <g id="play-circle-outline" transform="translate(-2519.999 791)">
      <g id="Group_35502" data-name="Group 35502" transform="translate(0 0)">
        <g id="Layer_2" data-name="Layer 2">
          <g id="play-circle">
            <path id="Path_34887" data-name="Path 34887" d="M12,2A10,10,0,1,0,22,12,10,10,0,0,0,12,2Zm0,18a8,8,0,1,1,8-8A8,8,0,0,1,12,20Z" transform="translate(-2 -2)" fill="#fff"/>
            <path id="Path_34888" data-name="Path 34888" d="M12.34,7.45a1.7,1.7,0,0,0-1.85-.3,1.6,1.6,0,0,0-1,1.48v6.74a1.6,1.6,0,0,0,1,1.48,1.68,1.68,0,0,0,.69.15,1.74,1.74,0,0,0,1.16-.45L16,13.18a1.6,1.6,0,0,0,0-2.36ZM11.5,14.6V9.4L14.31,12Z" transform="translate(-2 -2)" fill="#fff"/>
          </g>
        </g>
      </g>
    </g>
  </g>
</svg>
