<svg xmlns="http://www.w3.org/2000/svg" xmlns:xlink="http://www.w3.org/1999/xlink" width="80" height="80" viewBox="0 0 80 80">
  <defs>
    <clipPath id="clip-tutorial-2">
      <rect width="80" height="80"/>
    </clipPath>
  </defs>
  <g id="tutorial-2" clip-path="url(#clip-tutorial-2)">
    <g id="Group_51954" data-name="Group 51954" transform="translate(-1369 -873)">
      <g id="Path_45272" data-name="Path 45272" transform="translate(1369 873)" fill="none">
        <path d="M40,0A40,40,0,1,1,0,40,40,40,0,0,1,40,0Z" stroke="none"/>
        <path d="M 40 1 C 34.73458862304688 1 29.62722396850586 2.031013488769531 24.81974411010742 4.064399719238281 C 20.17577743530273 6.028633117675781 16.00485610961914 8.8408203125 12.42283630371094 12.42283630371094 C 8.8408203125 16.00485610961914 6.028633117675781 20.17577743530273 4.064399719238281 24.81974411010742 C 2.031013488769531 29.62722396850586 1 34.73458862304688 1 40 C 1 45.26541137695313 2.031013488769531 50.37277984619141 4.064399719238281 55.18025588989258 C 6.028633117675781 59.82422256469727 8.8408203125 63.99514389038086 12.42283630371094 67.57716369628906 C 16.00485610961914 71.1591796875 20.17577743530273 73.97136688232422 24.81974411010742 75.93560028076172 C 29.62722396850586 77.96898651123047 34.73458862304688 79 40 79 C 45.26541137695313 79 50.37277984619141 77.96898651123047 55.18025588989258 75.93560028076172 C 59.82422256469727 73.97136688232422 63.99514389038086 71.1591796875 67.57716369628906 67.57716369628906 C 71.1591796875 63.99514389038086 73.97136688232422 59.82422256469727 75.93560028076172 55.18025588989258 C 77.96898651123047 50.37277984619141 79 45.26541137695313 79 40 C 79 34.73458862304688 77.96898651123047 29.62722396850586 75.93560028076172 24.81974411010742 C 73.97136688232422 20.17577743530273 71.1591796875 16.00485610961914 67.57716369628906 12.42283630371094 C 63.99514389038086 8.8408203125 59.82422256469727 6.028633117675781 55.18025588989258 4.064399719238281 C 50.37277984619141 2.031013488769531 45.26541137695313 1 40 1 M 40 0 C 62.09138870239258 0 80 17.90861129760742 80 40 C 80 62.09138870239258 62.09138870239258 80 40 80 C 17.90861129760742 80 0 62.09138870239258 0 40 C 0 17.90861129760742 17.90861129760742 0 40 0 Z" stroke="none" fill="#e7ece7"/>
      </g>
      <g id="Group_52058" data-name="Group 52058" transform="translate(882 159)">
        <g id="Group_52062" data-name="Group 52062" transform="translate(-2.42 -10)">
          <path id="Subtraction_2" data-name="Subtraction 2" d="M28.566,24.091H11.785a8.832,8.832,0,0,0,.634-1.671A8.775,8.775,0,0,0,6.214,11.668,8.758,8.758,0,0,0,0,12.3V2.844A2.848,2.848,0,0,1,2.818,0H13.037a.046.046,0,0,1,.017,0,.428.428,0,0,1,.329.156L15.9,3.149H28.566A2.844,2.844,0,0,1,31.4,5.987V21.256A2.838,2.838,0,0,1,28.566,24.091Z" transform="translate(514.316 751.666)" fill="#b9e6c8"/>
          <g id="Group_52061" data-name="Group 52061" transform="translate(518.051 748)">
            <g id="Group_52060" data-name="Group 52060" transform="translate(0 0)">
              <path id="Path_45789" data-name="Path 45789" d="M71.95,45.828H59.282l-2.519-2.994a.43.43,0,0,0-.344-.155H46.2a2.836,2.836,0,0,0-2.8,2.45h9.316a1.648,1.648,0,0,1,1.266.588l2.151,2.557h12.1a4.061,4.061,0,0,1,4.054,4.054V66.742a2.836,2.836,0,0,0,2.485-2.812V48.66A2.839,2.839,0,0,0,71.95,45.828Z" transform="translate(-43.4 -42.679)" fill="#5bb476"/>
            </g>
          </g>
          <ellipse id="Ellipse_2419" data-name="Ellipse 2419" cx="7.213" cy="7.214" rx="7.213" ry="7.214" transform="matrix(0.966, 0.259, -0.259, 0.966, 513.154, 762.98)" fill="#fca800"/>
          <path id="Path_38766" data-name="Path 38766" d="M5.469,6.39a2.028,2.028,0,0,0-1.461-2L3.07,4.008c-.638-.256-1.09-.42-1.09-.872s.365-.66.938-.66a2.432,2.432,0,0,1,1.527.578l.84-1.047a3.413,3.413,0,0,0-1.8-.916V0H2.017V1.156A2.181,2.181,0,0,0,.283,3.233,2.137,2.137,0,0,0,1.766,5.24l.954.409c.643.262,1.058.409,1.058.872s-.338.709-1.036.709a2.868,2.868,0,0,1-1.8-.769L0,7.6a4.013,4.013,0,0,0,2.017,1v1.14H3.484V8.588A2.3,2.3,0,0,0,5.469,6.407Z" transform="matrix(0.966, 0.259, -0.259, 0.966, 516.89, 766.397)" fill="#fff"/>
        </g>
        <rect id="Rectangle_22087" data-name="Rectangle 22087" width="40" height="40" transform="translate(507 734)" fill="none"/>
      </g>
    </g>
  </g>
</svg>
