<svg xmlns="http://www.w3.org/2000/svg" width="48" height="48.131" viewBox="0 0 48 48.131">
  <g id="Group_50973" data-name="Group 50973" transform="translate(5 -16)">
    <g id="Group_50975" data-name="Group 50975" transform="translate(78 2)">
      <line id="Line_208" data-name="Line 208" x2="46" transform="translate(-82 61)" fill="none" stroke="#fff" stroke-linecap="round" stroke-width="2"/>
      <path id="Path_43317" data-name="Path 43317" d="M-72,61l2-14h25l-2,14" fill="none" stroke="#fff" stroke-linecap="round" stroke-width="2"/>
      <path id="Path_43318" data-name="Path 43318" d="M-77,57h-1a4,4,0,0,1-4-4V43c0-3.06,5.923-5,11-5s11,1.94,11,5v4" fill="none" stroke="#fff" stroke-linecap="round" stroke-width="2"/>
      <path id="Path_43319" data-name="Path 43319" d="M-62.665,19.073A15.94,15.94,0,0,1-52,15,16,16,0,0,1-36,31a15.97,15.97,0,0,1-5.873,12.388" fill="none" stroke="#fff" stroke-linecap="round" stroke-width="2"/>
      <path id="Path_43320" data-name="Path 43320" d="M-54,27h2V38" fill="none" stroke="#fff" stroke-linecap="round" stroke-width="2"/>
      <line id="Line_209" data-name="Line 209" x2="1" transform="translate(-53 23)" fill="none" stroke="#fff" stroke-linecap="round" stroke-linejoin="round" stroke-width="2"/>
      <line id="Line_210" data-name="Line 210" x2="4" transform="translate(-54 38)" fill="none" stroke="#fff" stroke-linecap="round" stroke-width="2"/>
      <path id="Path_43321" data-name="Path 43321" d="M-71,34a5.97,5.97,0,0,1-6-6V25a6,6,0,0,1,6-6,6,6,0,0,1,6,6v3A5.957,5.957,0,0,1-71,34Z" fill="none" stroke="#fff" stroke-linecap="round" stroke-width="2"/>
    </g>
  </g>
</svg>
