<svg xmlns="http://www.w3.org/2000/svg" width="48.932" height="48.157" viewBox="0 0 48.932 48.157">
  <g id="Group_50976" data-name="Group 50976" transform="translate(-51.579 -5587.511)">
    <g id="Group_50974" data-name="Group 50974" transform="translate(36 5572)">
      <g id="Group_50977" data-name="Group 50977">
        <path id="Path_43312" data-name="Path 43312" d="M38.644,60.175a2.962,2.962,0,0,1-3.785,1.018A32.542,32.542,0,0,1,21.134,47.924,32.115,32.115,0,0,1,16.682,29.37,2.949,2.949,0,0,1,19.5,26.656L22.82,26.5a3.1,3.1,0,0,1,3.215,3.091c0,1.759.019,3.8.092,4.931.146,2.264-3.476,1.976-3.331,4.24s1.668,4.919,2.683,6.689,2.537,4.424,4.421,5.7,3.476-1.977,5.36-.7c.94.636,2.69,1.687,4.209,2.58A3.083,3.083,0,0,1,40.5,57.369Z" fill="none" stroke="#fff" stroke-linecap="round" stroke-linejoin="round" stroke-width="2"/>
        <path id="Path_43313" data-name="Path 43313" d="M24.989,22.511a23.022,23.022,0,0,1,38.522,17,23.369,23.369,0,0,1-19,23" fill="none" stroke="#fff" stroke-linecap="round" stroke-linejoin="round" stroke-width="2"/>
        <g id="Group_50609" data-name="Group 50609">
          <path id="Path_43314" data-name="Path 43314" d="M40.983,43.5H33.977v-2c1.306-2.172,7.006-3.571,7.006-7,0-4-7.006-4-7.006,0" fill="none" stroke="#fff" stroke-linecap="round" stroke-linejoin="round" stroke-width="2"/>
          <path id="Path_43315" data-name="Path 43315" d="M50.991,43.5v-12h-2l-5,9h9.007" fill="none" stroke="#fff" stroke-linecap="round" stroke-linejoin="round" stroke-width="2"/>
        </g>
      </g>
    </g>
  </g>
</svg>
