<?xml version="1.0" standalone="no"?>
<!DOCTYPE svg PUBLIC "-//W3C//DTD SVG 20010904//EN"
 "http://www.w3.org/TR/2001/REC-SVG-20010904/DTD/svg10.dtd">
<svg version="1.0" xmlns="http://www.w3.org/2000/svg"
 width="512.000000pt" height="512.000000pt" viewBox="0 0 512.000000 512.000000"
 preserveAspectRatio="xMidYMid meet">

<g transform="translate(0.000000,512.000000) scale(0.100000,-0.100000)"
fill="white" stroke="none">
<path d="M2098 4500 c-59 -10 -142 -55 -175 -95 -15 -16 -38 -55 -52 -85 l-26
-55 0 -470 c0 -531 0 -533 76 -619 59 -67 129 -97 239 -104 l90 -5 0 -156 c0
-175 11 -218 62 -235 58 -20 87 0 296 202 l200 192 296 0 c174 0 316 4 346 11
106 23 196 114 225 227 14 52 16 128 13 509 l-3 448 -33 67 c-36 73 -79 114
-159 151 -48 22 -48 22 -698 24 -357 0 -671 -3 -697 -7z m1327 -212 c54 -25
55 -30 55 -508 l0 -442 -29 -29 -29 -29 -331 0 c-206 0 -340 -4 -358 -10 -15
-6 -83 -66 -150 -133 l-123 -122 0 88 c0 156 -27 177 -225 177 -126 0 -127 0
-156 29 l-29 29 0 444 c1 474 1 476 51 504 33 18 1284 20 1324 2z"/>
<path d="M2310 3672 c-72 -36 -75 -131 -6 -173 29 -18 58 -19 461 -19 406 0
432 1 461 19 69 42 63 146 -10 176 -29 12 -109 15 -453 15 -378 0 -421 -2
-453 -18z"/>
<path d="M653 3680 c-85 -17 -167 -81 -211 -164 l-27 -51 0 -1310 0 -1310 28
-57 c34 -70 101 -131 170 -155 49 -17 146 -18 1947 -18 1801 0 1898 1 1947 18
69 24 136 85 170 155 l28 57 3 1292 c2 1280 2 1292 -18 1346 -27 73 -88 139
-158 174 -57 28 -57 28 -298 31 -197 3 -247 1 -277 -11 -69 -29 -86 -116 -31
-168 25 -24 28 -24 274 -29 277 -6 280 -6 300 -79 14 -50 14 -2453 0 -2503 -6
-20 -22 -46 -37 -58 -26 -20 -27 -20 -1903 -20 -1876 0 -1877 0 -1903 20 -15
12 -31 38 -37 58 -6 24 -10 453 -10 1260 0 1295 -1 1264 45 1302 15 13 88 16
471 20 l452 5 26 24 c34 32 42 80 21 121 -31 59 -40 60 -507 59 -233 -1 -442
-5 -465 -9z"/>
<path d="M884 3270 c-56 -22 -81 -101 -48 -149 9 -12 277 -218 595 -457 318
-239 579 -438 579 -442 0 -5 -265 -241 -589 -526 -324 -285 -592 -524 -595
-533 -27 -69 21 -143 93 -143 30 0 49 7 73 28 18 16 287 250 598 522 311 271
573 500 582 508 15 13 33 2 184 -109 143 -105 173 -124 204 -124 32 0 60 18
194 118 86 65 163 120 171 123 9 4 239 -191 621 -525 334 -292 617 -534 630
-537 62 -16 124 32 124 93 0 21 -7 49 -16 61 -8 12 -275 251 -593 530 -317
279 -579 510 -581 514 -3 4 256 202 576 441 319 239 588 445 597 458 44 61 -5
154 -81 154 -36 0 -95 -42 -836 -598 -438 -328 -801 -597 -806 -597 -6 0 -364
266 -796 591 -432 324 -797 594 -811 600 -29 11 -41 11 -69 -1z"/>
</g>
</svg>
