<?xml version="1.0" standalone="no"?>
<!DOCTYPE svg PUBLIC "-//W3C//DTD SVG 20010904//EN"
 "http://www.w3.org/TR/2001/REC-SVG-20010904/DTD/svg10.dtd">
<svg version="1.0" xmlns="http://www.w3.org/2000/svg"
 width="512.000000pt" height="512.000000pt" viewBox="0 0 512.000000 512.000000"
 preserveAspectRatio="xMidYMid meet">

<g transform="translate(0.000000,512.000000) scale(0.100000,-0.100000)"
fill="white" stroke="none">
<path d="M3810 5115 c-8 -2 -49 -9 -90 -15 -219 -36 -446 -151 -616 -312 -382
-363 -483 -941 -245 -1405 22 -43 48 -90 58 -106 18 -27 17 -29 -85 -335 -56
-169 -102 -315 -102 -325 0 -48 50 -97 101 -97 10 0 153 67 318 149 l298 150
85 -30 c148 -51 228 -64 398 -64 113 0 178 6 240 19 472 102 836 466 935 936
20 97 20 383 0 480 -97 463 -454 826 -915 931 -78 18 -338 35 -380 24z m285
-210 c210 -37 392 -131 540 -280 125 -124 224 -298 267 -471 32 -127 32 -341
0 -468 -43 -173 -142 -347 -267 -471 -288 -289 -722 -373 -1096 -214 -37 16
-77 29 -89 29 -11 0 -115 -47 -230 -105 -115 -58 -212 -105 -214 -105 -3 0 27
93 65 207 38 114 69 223 69 243 0 24 -11 52 -35 88 -123 183 -183 393 -172
607 10 192 60 344 163 503 214 329 614 504 999 437z"/>
<path d="M3281 4006 c-87 -48 -50 -186 49 -186 51 0 100 49 100 100 0 73 -85
122 -149 86z"/>
<path d="M3881 4006 c-87 -48 -50 -186 49 -186 51 0 100 49 100 99 0 75 -83
124 -149 87z"/>
<path d="M4481 4006 c-87 -48 -50 -186 49 -186 51 0 100 49 100 99 0 75 -83
124 -149 87z"/>
<path d="M775 4576 c-47 -21 -533 -519 -588 -603 -65 -98 -114 -207 -145 -322
-35 -132 -37 -351 -4 -483 48 -195 279 -637 525 -1008 526 -791 1217 -1424
2055 -1884 161 -89 380 -193 467 -223 295 -100 615 -54 890 130 33 22 183 162
332 311 292 289 301 302 270 362 -9 16 -265 278 -569 582 l-553 552 -45 0 -44
0 -266 -264 c-146 -145 -281 -272 -300 -282 -21 -11 -57 -18 -91 -18 -65 -1
-92 14 -276 147 -62 45 -127 92 -144 105 -87 61 -191 -23 -153 -122 7 -18 179
-150 309 -236 127 -85 220 -111 330 -91 123 23 152 44 403 294 l232 232 465
-465 c256 -256 465 -470 465 -475 0 -6 -98 -108 -217 -226 -240 -237 -311
-290 -456 -340 -188 -64 -367 -64 -540 1 -91 34 -418 200 -572 291 -940 550
-1689 1358 -2190 2358 -45 91 -94 198 -108 236 -71 199 -60 413 33 611 54 116
93 164 324 394 l206 205 467 -467 467 -467 -227 -229 c-199 -201 -231 -238
-259 -298 -31 -65 -33 -76 -33 -179 0 -102 2 -114 29 -165 41 -80 193 -297
247 -352 38 -41 51 -48 83 -48 52 0 96 44 96 95 0 30 -13 55 -67 129 -149 202
-186 262 -191 315 -10 108 -15 100 283 401 181 182 274 284 277 300 2 14 0 38
-4 55 -10 38 -1087 1120 -1135 1141 -39 17 -40 17 -78 0z"/>
<path d="M1841 1986 c-87 -48 -50 -186 49 -186 33 0 71 23 86 51 23 45 17 78
-20 115 -37 37 -73 43 -115 20z"/>
</g>
</svg>
