<svg xmlns="http://www.w3.org/2000/svg" xmlns:xlink="http://www.w3.org/1999/xlink" width="24" height="24" viewBox="0 0 24 24">
  <defs>
    <clipPath id="clip-ic-share">
      <rect width="24" height="24"/>
    </clipPath>
  </defs>
  <g id="ic-share" clip-path="url(#clip-ic-share)">
    <g id="ic_Share">
      <circle id="Ellipse_241" data-name="Ellipse 241" cx="12" cy="12" r="12" fill="#212121"/>
      <path id="Path_763" data-name="Path 763" d="M10.488,4.62a2.31,2.31,0,1,0-2.31-2.31,3,3,0,0,0,.154.847L3.943,5.7a2.352,2.352,0,0,0-1.733-.77,2.31,2.31,0,1,0,0,4.62,2.352,2.352,0,0,0,1.733-.77l4.274,2.5a3,3,0,0,0-.154.809,2.31,2.31,0,1,0,2.31-2.31,2.191,2.191,0,0,0-1.771.847L4.366,8.163a2.133,2.133,0,0,0,0-1.771L8.756,3.85A2.352,2.352,0,0,0,10.488,4.62Z" transform="translate(4.1 4.8)" fill="#fff"/>
    </g>
  </g>
</svg>
