<svg xmlns="http://www.w3.org/2000/svg" xmlns:xlink="http://www.w3.org/1999/xlink" width="24" height="24" viewBox="0 0 24 24">
  <defs>
    <clipPath id="clip-ic-ytb">
      <rect width="24" height="24"/>
    </clipPath>
  </defs>
  <g id="ic-ytb" clip-path="url(#clip-ic-ytb)">
    <g id="ic_Youtube">
      <circle id="Ellipse_240" data-name="Ellipse 240" cx="12" cy="12" r="12" fill="#212121"/>
      <path id="Path_764" data-name="Path 764" d="M12.823,0H1.577A1.6,1.6,0,0,0,0,1.577V8.366A1.6,1.6,0,0,0,1.577,9.943H12.823A1.6,1.6,0,0,0,14.4,8.366V1.577A1.6,1.6,0,0,0,12.823,0ZM8.263,5.246,6.617,6.891a.343.343,0,0,1-.583-.24V3.291a.343.343,0,0,1,.583-.24L8.263,4.8A.292.292,0,0,1,8.263,5.246Z" transform="translate(4.8 7.2)" fill="#fff"/>
    </g>
  </g>
</svg>
